<?xml version="1.0" encoding="UTF-8"?>
<svg id="Layer_2" data-name="Layer 2" xmlns="http://www.w3.org/2000/svg" viewBox="0 0 1224.99 1103.9">
  <defs>
    <style>
      .cls-1 {
        fill: none;
        stroke: lime;
        stroke-miterlimit: 10;
      }
    </style>
  </defs>
  <g id="Layer_1-2" data-name="Layer 1">
    <g id="portal">
      <path class="cls-1" d="M326.99,1103.9v-416.5c0-157.68,127.82-285.5,285.5-285.5h0c157.68,0,285.5,127.82,285.5,285.5v416.5"/>
      <path class="cls-1" d="M1224.49,1103.9v-491.41C1224.49,274.5,950.49.5,612.5.5h0C274.5.5.5,274.5.5,612.49v491.41"/>
      <path class="cls-1" d="M1168.85,1103.9v-478.64c0-307.27-249.09-556.36-556.36-556.36h0c-307.27,0-556.36,249.09-556.36,556.36v478.64"/>
      <path class="cls-1" d="M1118.28,1103.9v-467.04c0-279.33-226.45-505.78-505.78-505.78h0c-279.33,0-505.78,226.45-505.78,505.78v467.04"/>
      <path class="cls-1" d="M1072.3,1103.9v-456.49c0-253.94-205.86-459.8-459.8-459.8h0c-253.94,0-459.8,205.86-459.8,459.8v456.49"/>
      <path class="cls-1" d="M1030.5,1103.9v-446.9c0-230.86-187.15-418-418-418h0c-230.86,0-418,187.15-418,418v446.9"/>
      <path class="cls-1" d="M992.5,1103.9v-438.18c0-209.87-170.13-380-380-380h0c-209.87,0-380,170.13-380,380v438.18"/>
    </g>
  </g>
</svg>